#!OML:ASF H:\Terrain\Patient Classification 1\Takeo\Monday\TakeoMonday.ASF
:FULLY-SPECIFIED
:DEGREES
1
root 9.28722 16.95 -34.2762 8.20944 3.39386 1.16184
lowerback 6.78285 -4.34327 -2.18541
upperback 0.468644 -5.89395 1.54697
thorax -2.91983 -2.89759 3.34091
lowerneck -15.4607 3.23425 -2.78872
upperneck -4.94367 4.71105 -0.0697579
head 0.952485 2.38239 0.699328
rclavicle -6.6742e-014 1.83876e-014
rhumerus -73.5815 8.52696 -90.5215
rradius 81.7967
rwrist -13.4287
rhand -37.9742 45.9434
rfingers 7.12502
rthumb -11.0144 16.2524
lclavicle -6.6742e-014 1.83876e-014
lhumerus -27.4045 -36.6908 88.0554
lradius 111.362
lwrist 33.8026
lhand -32.8412 4.2741
lfingers 7.12502
lthumb -6.06086 34.1674
rfemur -39.6416 6.31788 21.5983
rtibia 48.813
rfoot -20.026 -14.566
rtoes -20.5773
lfemur 13.255 -6.21672 -25.33
ltibia 24.253
lfoot 27.8165 8.16614
ltoes 0
2
root 9.27327 17.0166 -33.9059 7.90248 3.36276 1.84027
lowerback 6.80655 -4.35476 -2.79484
upperback 0.545478 -5.96089 1.3769
thorax -2.80503 -2.92783 3.50454
lowerneck -15.6909 3.32565 -3.0636
upperneck -4.59119 4.8867 0.103655
head 1.09498 2.47391 0.822386
rclavicle 1.73937e-014 -5.1684e-015
rhumerus -72.9939 8.23957 -90.5932
rradius 82.0832
rwrist -13.1946
rhand -37.9004 45.1938
rfingers 7.12502
rthumb -10.9432 15.499
lclavicle 1.73937e-014 -5.1684e-015
lhumerus -28.85 -37.357 89.0048
lradius 110.65
lwrist 34.3757
lhand -32.4916 3.22082
lfingers 7.12502
lthumb -5.72341 33.1235
rfemur -38.2923 6.2278 20.9556
rtibia 45.6391
rfoot -20.9508 -14.1228
rtoes -21.8789
lfemur 13.2156 -6.12132 -25.9174
ltibia 25.7451
lfoot 28.1016 9.89761
ltoes 0
3
root 9.26842 17.0258 -33.5556 7.79891 3.48598 3.02903
lowerback 6.56696 -4.45419 -3.80054
upperback 0.737447 -6.16428 1.16178
thorax -2.37506 -3.03373 3.81758
lowerneck -16.2957 3.3456 -3.51161
upperneck -4.12999 5.01452 0.0662774
head 1.33987 2.53485 0.91903
rclavicle 3.81667e-014 -1.19271e-015
rhumerus -71.8409 8.20383 -90.4644
rradius 82.2654
rwrist -12.6582
rhand -37.6203 44.933
rfingers 7.12502
rthumb -10.673 15.2241
lclavicle 3.81667e-014 -1.19271e-015
lhumerus -30.2121 -37.5844 90.17
lradius 109.867
lwrist 34.1666
lhand -32.6939 2.12065
lfingers 7.12502
lthumb -5.91865 32.018
rfemur -37.7788 5.70075 19.8088
rtibia 43.8126
rfoot -22.1688 -13.3538
rtoes -21.8036
lfemur 12.8996 -5.33016 -26.9159
ltibia 28.5997
lfoot 27.4582 9.0937
ltoes 0
4
root 9.24927 17.0163 -33.2206 7.67638 3.308 3.80954
lowerback 6.34181 -4.22589 -4.35821
upperback 1.24046 -5.89086 0.69217
thorax -1.74756 -2.91947 3.57608
lowerneck -17.5937 3.22276 -2.83937
upperneck -3.87251 4.78314 -0.472634
head 1.68355 2.3879 0.656004
rclavicle -4.9398e-014 -5.96354e-015
rhumerus -69.8853 7.3012 -90.6537
rradius 82.3893
rwrist -12.1663
rhand -37.5825 44.8884
rfingers 7.12502
rthumb -10.6366 15.1776
lclavicle -4.9398e-014 -5.96354e-015
lhumerus -30.8112 -38.5269 90.4755
lradius 109.069
lwrist 33.8492
lhand -32.3386 2.34575
lfingers 7.12502
lthumb -5.57561 32.2524
rfemur -37.0597 5.60516 19.179
rtibia 41.8009
rfoot -22.0257 -12.837
rtoes -21.6892
lfemur 12.1535 -4.51012 -27.4648
ltibia 31.892
lfoot 25.5766 8.4591
ltoes 0
5
root 9.24683 17.0177 -32.8974 7.99568 3.26953 3.17783
lowerback 6.16177 -4.16494 -3.40814
upperback 0.988677 -5.74237 0.834257
thorax -2.00039 -2.83993 3.18804
lowerneck -17.3001 3.23252 -2.33337
upperneck -3.8934 4.70565 -1.13631
head 1.65409 2.32356 0.344747
rclavicle -2.66371e-014 8.54774e-015
rhumerus -68.9396 7.09918 -90.8498
rradius 82.7918
rwrist -12.1002
rhand -37.5894 44.7395
rfingers 7.12502
rthumb -10.6432 15.0291
lclavicle -2.66371e-014 8.54774e-015
lhumerus -32.8119 -38.643 91.8529
lradius 108.369
lwrist 33.1585
lhand -31.6273 2.8583
lfingers 7.12502
lthumb -4.88889 32.7819
rfemur -36.8614 5.415 20.1304
rtibia 40.3103
rfoot -21.4938 -12.4479
rtoes -22.0264
lfemur 10.3477 -4.13826 -26.5364
ltibia 35.882
lfoot 20.7224 7.44204
ltoes 0
